# xmcd
#
# Track frame offsets: 
#        151
#        15966
#        58769
#        83538
#        104149
#        124058
#        152826
#        199055
#        222990
#        273126
#
# Disc length: 3903 seconds
#
# Revision: 0
# Processed by: cddbd v1.5.2PL0 Copyright (c) Steve Scherf et al.
# Submitted via: ExactAudioCopy v0.95b4
#
DISCID=830f3d0a
DTITLE=Albert King  - The Best Of Albert King_ Stormy Monday Blues
DYEAR=2002
DGENRE=Blues
TTITLE0=King's Bounce (instrumental)
TTITLE1=Stormy Monday Blues
TTITLE2=Born Under A Bad Sign
TTITLE3=The Very Thought Of You
TTITLE4=You're My Woman, I'm Your Man
TTITLE5=Tired As A Man Can Be
TTITLE6=Blues At Sunrise
TTITLE7=Breakin' Up Somebody's Home
TTITLE8=Please Come Back To Me
TTITLE9=I'll Play The Blues For You
EXTD=
EXTT0=
EXTT1=
EXTT2=
EXTT3=
EXTT4=
EXTT5=
EXTT6=
EXTT7=
EXTT8=
EXTT9=
PLAYORDER=
